<svg xmlns="http://www.w3.org/2000/svg" viewBox="0 0 1600 940" role="img" aria-labelledby="title desc">
  <title id="title">Cubacadabra platform overview</title>
  <desc id="desc">Studio turns authored content into a portable Cube package. The shared Rust runtime opens that package across browser, phone, and desktop hosts while backend services coordinate live worlds and durable records.</desc>
  <defs>
    <linearGradient id="bg" x1="0" y1="0" x2="1" y2="1"><stop stop-color="#080b18"/><stop offset=".52" stop-color="#11152d"/><stop offset="1" stop-color="#1a1230"/></linearGradient>
    <linearGradient id="cube" x1="0" y1="0" x2="1" y2="1"><stop stop-color="#ff8d70"/><stop offset=".48" stop-color="#ff5b6e"/><stop offset="1" stop-color="#7147e8"/></linearGradient>
    <filter id="glow" x="-50%" y="-50%" width="200%" height="200%"><feGaussianBlur stdDeviation="14" result="blur"/><feMerge><feMergeNode in="blur"/><feMergeNode in="SourceGraphic"/></feMerge></filter>
    <filter id="soft" x="-20%" y="-20%" width="140%" height="140%"><feGaussianBlur stdDeviation="38"/></filter>
    <marker id="arrow" markerWidth="12" markerHeight="12" refX="9" refY="6" orient="auto"><path d="M0 0L12 6L0 12Z" fill="#ff836f"/></marker>
    <style>text{font-family:Inter,Arial,sans-serif}.eyebrow{fill:#ff846d;font-size:16px;font-weight:700;letter-spacing:3px}.title{fill:#f7f7fb;font-size:34px;font-weight:750}.sub{fill:#a9afd0;font-size:17px}.label{fill:#fff;font-size:15px;font-weight:700}.muted{fill:#9299bd;font-size:13px}.small{fill:#c4c9e1;font-size:13px}</style>
  </defs>
  <rect width="1600" height="940" rx="34" fill="url(#bg)"/><circle cx="750" cy="420" r="250" fill="#ff5c6c" opacity=".08" filter="url(#soft)"/><circle cx="1240" cy="250" r="230" fill="#5b5ee9" opacity=".1" filter="url(#soft)"/><g fill="#fff" opacity=".45"><circle cx="74" cy="92" r="2"/><circle cx="250" cy="170" r="2"/><circle cx="1400" cy="110" r="2"/><circle cx="1510" cy="710" r="2"/><circle cx="1080" cy="70" r="1.5"/><circle cx="530" cy="760" r="1.5"/></g>
  <text x="74" y="78" class="eyebrow">CUBACADABRA / PLATFORM</text><text x="74" y="126" class="title">One package. Every host.</text><text x="74" y="158" class="sub">Studio authors the world; the Cube carries it; Player makes it real.</text>
  <g transform="translate(74 264)"><text y="-24" class="label">STUDIO</text><text y="2" class="muted">creator workspace</text><rect y="28" width="390" height="250" rx="20" fill="#171d38" stroke="#424b77" stroke-width="2"/><rect x="18" y="47" width="354" height="174" rx="12" fill="#0c1124"/><path d="M18 178L93 130L166 164L230 105L372 178V221H18Z" fill="#263c62"/><path d="M18 194L118 158L207 194L292 146L372 188V221H18Z" fill="#314e64"/><path d="M57 180L112 135L166 166L226 112" fill="none" stroke="#ff806d" stroke-width="4" stroke-linecap="round"/><circle cx="112" cy="135" r="8" fill="#ff806d" filter="url(#glow)"/><rect x="18" y="236" width="104" height="7" rx="4" fill="#ff806d"/><rect x="135" y="236" width="74" height="7" rx="4" fill="#5569c8"/><rect x="222" y="236" width="126" height="7" rx="4" fill="#344268"/><text x="18" y="306" class="small">JSON  ·  Luau  ·  GLB</text></g>
  <path d="M480 418C555 418 559 418 622 418" fill="none" stroke="#ff816e" stroke-width="3" marker-end="url(#arrow)"/><text x="500" y="391" fill="#ffac9c" class="muted" font-weight="600">validate + build</text>
  <g transform="translate(660 270)"><text x="44" y="-24" class="label">THE CUBE</text><text x="44" y="2" class="muted">portable, hashed package</text><path d="M118 54L256 126L118 198L0 126Z" fill="url(#cube)"/><path d="M0 126L118 198V370L0 298Z" fill="#d64f65"/><path d="M118 198L256 126V298L118 370Z" fill="#704ad1"/><path d="M118 54V198M0 126L118 198L256 126" fill="none" stroke="#ffe0d7" stroke-width="2" opacity=".8"/><path d="M23 138L107 187V321L23 270Z" fill="#f2776d" opacity=".35"/><path d="M138 211L232 160V278L138 329Z" fill="#a085f1" opacity=".35"/><rect x="36" y="100" width="84" height="28" rx="14" transform="rotate(30 36 100)" fill="#fff" opacity=".95"/><text x="44" y="397" class="small">manifest · assets · rules · hashes</text></g>
  <g transform="translate(1010 220)"><text class="label">PLAYER HOSTS</text><text y="27" class="muted">native presentation + device APIs</text><g transform="translate(0 62)"><rect width="220" height="152" rx="14" fill="#10162e" stroke="#6b78c6" stroke-width="2"/><rect x="12" y="12" width="196" height="112" rx="7" fill="#17255b"/><path d="M12 102L68 72L112 91L157 54L208 89V124H12Z" fill="#4b76d3" opacity=".8"/><circle cx="108" cy="68" r="10" fill="#ff816e"/><rect x="88" y="132" width="44" height="5" rx="3" fill="#5c6590"/><text x="18" y="181" class="small">Web browser</text></g><g transform="translate(260 40)"><rect width="104" height="188" rx="20" fill="#10162e" stroke="#9b75e9" stroke-width="2"/><rect x="9" y="19" width="86" height="146" rx="10" fill="#2a3267"/><path d="M9 125L44 101L68 112L95 84V165H9Z" fill="#5664c9"/><circle cx="51" cy="82" r="8" fill="#ff816e"/><rect x="42" y="8" width="20" height="4" rx="2" fill="#656e9b"/><text x="3" y="218" class="small">iOS / Android</text></g><g transform="translate(402 62)"><rect width="220" height="152" rx="14" fill="#10162e" stroke="#6b78c6" stroke-width="2"/><rect x="12" y="12" width="196" height="112" rx="7" fill="#201d50"/><path d="M12 103L59 76L102 92L153 54L208 87V124H12Z" fill="#7a54d9" opacity=".8"/><circle cx="106" cy="68" r="10" fill="#ff816e"/><path d="M-24 163H244L261 178H-41Z" fill="#333961"/><text x="26" y="181" class="small">Desktop Player</text></g></g>
  <path d="M930 418C964 418 976 374 1010 374" fill="none" stroke="#ff816e" stroke-width="3" marker-end="url(#arrow)"/><text x="938" y="385" fill="#ffac9c" class="muted" font-weight="600">load + render</text>
  <g transform="translate(424 670)"><rect width="752" height="102" rx="24" fill="#121d43" stroke="#4c70d4" stroke-width="2"/><rect x="20" y="20" width="8" height="62" rx="4" fill="#ff816e"/><text x="52" y="48" fill="#f3f5ff" font-family="Inter,Arial,sans-serif" font-size="22" font-weight="700">Rust runtime</text><text x="52" y="73" fill="#aeb8e2" font-family="Inter,Arial,sans-serif" font-size="14">simulation · Luau · renderer · client session · app state</text><text x="545" y="53" fill="#8198ef" font-family="Inter,Arial,sans-serif" font-size="13" font-weight="700">SHARED SEMANTICS</text><text x="545" y="75" fill="#9da8ce" font-family="Inter,Arial,sans-serif" font-size="13">same package, same rules</text></g>
  <path d="M790 640V588" fill="none" stroke="#6279d8" stroke-width="2" stroke-dasharray="5 7"/><path d="M1120 670C1240 635 1370 635 1490 670" fill="none" stroke="#f1af68" stroke-width="2" stroke-dasharray="7 8" opacity=".75"/>
  <g transform="translate(74 830)"><circle cx="16" cy="12" r="9" fill="#f1af68"/><text x="42" y="18" fill="#f6d3a0" font-family="Inter,Arial,sans-serif" font-size="14" font-weight="700">PLATFORM SERVICES</text><text x="247" y="18" fill="#aeb3d1" font-family="Inter,Arial,sans-serif" font-size="14">live worlds · auth · publishing · durable records · moderation</text></g><text x="1510" y="890" text-anchor="end" fill="#737ca8" font-family="Inter,Arial,sans-serif" font-size="12">orientation map / see canonical contracts for exact behavior</text>
</svg>
